<svg width="935" height="288" viewBox="0 0 935 288" fill="none" xmlns="http://www.w3.org/2000/svg">
    <g clip-path="url(#clip0_248_2239)">
        <path d="M0 43.5703H57.7153C93.3743 43.5703 113.566 61.9188 113.566 89.7355C113.566 115.504 96.253 136.935 56.4787 136.935H29.8814V191.352H0V43.5703ZM29.8814 117.37H57.0869C76.4672 117.37 83.6841 105.002 83.6841 92.432C83.6841 79.8618 76.6699 67.2915 57.0869 67.2915H29.8814V117.39V117.37Z" fill="white"/>
        <path d="M190.438 109.544H156.016V191.372H128.182V88.9243H190.418V109.544H190.438Z" fill="white"/>
        <path d="M195.608 140.868C195.608 108.307 216.225 86.248 250.221 86.248C278.258 86.248 297.01 101.292 301.956 122.742L275.359 126.452C272.683 115.524 265.263 106.867 251.032 106.867C232.078 106.867 223.421 121.708 223.421 140.057C223.421 145.632 224.252 150.782 225.894 155.303V155.1C225.894 143.564 232.078 129.331 253.931 129.331C262.182 129.331 268.973 131.399 272.075 133.042V152.83C267.96 150.762 257.864 148.714 250.019 148.714C240.957 148.714 230.841 151.39 230.841 159.439C230.841 167.488 240.126 173.246 254.337 173.449C271.041 173.246 285.455 164.386 296.179 153.458V180.869C289.59 187.053 274.751 194.068 252.897 194.068C214.36 194.068 195.608 172.009 195.608 140.888V140.868Z" fill="white"/>
        <path d="M312.052 180.646V153.235C318.032 160.858 335.75 173.429 353.691 173.429C368.936 173.429 377.187 168.482 377.187 159.216C377.187 151.39 371.206 147.883 347.914 145.206C328.736 142.936 312.255 135.312 312.255 117.369C312.255 101.089 325.655 86.248 354.705 86.248C373.659 86.248 387.891 92.4318 396.141 98.21V125.621C389.756 119.64 373.477 106.867 353.265 106.867C340.068 106.867 334.716 112.443 334.716 119.64C334.716 127.263 340.697 130.974 361.516 133.244C380.471 135.515 399.649 140.259 399.649 163.332C399.649 181.275 381.099 194.048 353.894 194.048C331.635 194.048 318.64 185.391 312.052 180.646Z" fill="white"/>
        <path d="M462.331 193.257C427.442 193.257 408.163 169.009 408.163 138.637C408.163 108.266 426.854 84.7476 462.331 84.7476C497.807 84.7476 516.356 108.996 516.356 138.779C516.356 163.595 503.504 184.478 479.42 191.047C480.292 195.142 484.975 197.474 490.367 197.474C498.111 197.474 506.423 192.507 510.072 189.445V211.058C506.423 213.532 500.726 215.437 494.604 215.437C482.623 215.437 473.298 208.138 472.264 192.507C469.061 192.953 465.838 193.237 462.331 193.237V193.257ZM432.692 138.941C432.692 158.06 443.214 173.834 462.331 173.834C481.447 173.834 491.827 158.06 491.827 138.941C491.827 119.823 481.61 104.191 462.189 104.191C442.768 104.191 432.692 119.823 432.692 138.941Z" fill="white"/>
        <path d="M529.189 153.641V88.9243H557.002V149.119C557.002 165.197 564.219 173.449 576.383 173.449C594.303 173.449 600.284 155.526 600.284 145.632V88.9446H628.118V191.392H600.284V163.981C594.932 185.837 579.667 194.068 568.132 194.068C539.892 194.068 529.189 173.449 529.189 153.661V153.641Z" fill="white"/>
        <path d="M644.396 102.529L659.236 42.5361H685.833L662.945 102.529H644.396Z" fill="white"/>
        <path d="M752.387 88.9241V170.752H773.004V191.371H703.956V170.752H724.573V109.523H703.956V88.9038H752.387V88.9241Z" fill="white"/>
        <path d="M815.251 43.5703V191.372H787.417V43.5703H815.251Z" fill="white"/>
        <path d="M828.651 140.868C828.651 108.307 849.268 86.248 883.265 86.248C911.302 86.248 930.054 101.292 935 122.742L908.403 126.452C905.727 115.524 898.307 106.867 884.076 106.867C865.121 106.867 856.465 121.708 856.465 140.057C856.465 145.632 857.296 150.782 858.938 155.303V155.1C858.938 143.564 865.121 129.331 886.975 129.331C895.226 129.331 902.017 131.399 905.119 133.042V152.83C901.003 150.762 890.908 148.714 883.062 148.714C874.001 148.714 863.885 151.39 863.885 159.439C863.885 167.488 873.169 173.246 887.38 173.449C904.085 173.246 918.498 164.386 929.222 153.458V180.869C922.634 187.053 907.794 194.068 885.941 194.068C847.403 194.068 828.651 172.009 828.651 140.888V140.868Z" fill="white"/>
        <path d="M703.824 43.3267H773.5V63.8242H703.824V43.3267Z" fill="white"/>
        <path d="M555.685 263.954C554.225 270.604 549.826 274.7 542.872 274.7C534.845 274.7 529.574 268.415 529.574 258.987C529.574 249.559 535.007 243.092 542.994 243.092C549.826 243.092 554.225 247.208 555.685 253.777V230.583H560.165V273.909H555.685V263.934V263.954ZM544.879 246.559C538.413 246.559 534.074 251.445 534.074 258.947C534.074 266.448 538.433 271.274 544.879 271.274C551.326 271.274 555.685 266.448 555.685 258.947C555.685 251.445 551.326 246.559 544.879 246.559Z" fill="white"/>
        <path d="M563.692 259.008C563.692 249.762 569.368 243.112 579.038 243.112C587.309 243.112 592.276 247.998 593.351 253.574L589.114 254.243C588.141 249.823 584.816 246.559 579.2 246.559C571.821 246.559 568.152 252.114 568.152 259.008C568.152 260.812 568.395 262.515 568.943 264.015C568.943 258.156 574.072 256.047 579.221 256.047C582.363 256.047 584.836 256.777 585.931 257.325V260.832C584.654 260.163 581.572 259.271 578.43 259.271C574.254 259.271 569.977 260.792 569.977 264.461C569.977 269.165 575.774 271.294 579.768 271.294C585.323 271.294 589.925 268.516 592.641 265.8V270.402C590.472 272.45 585.627 274.761 579.586 274.761C569.186 274.761 563.692 268.05 563.692 259.048V259.008Z" fill="white"/>
        <path d="M619.684 230.603V273.93H615.204V230.603H619.684Z" fill="white"/>
        <path d="M624.712 245.525L629.07 230.542H633.834L627.793 245.525H624.712Z" fill="white"/>
        <path d="M647.153 243.903V270.422H654.289V273.93H635.558V270.422H642.693V247.35H635.558V243.903H647.153ZM647.822 232.793C647.822 234.415 646.545 235.692 644.923 235.692C643.302 235.692 641.964 234.415 641.964 232.793C641.964 231.171 643.302 229.833 644.923 229.833C646.545 229.833 647.822 231.171 647.822 232.793Z" fill="white"/>
        <path d="M657.249 243.903H661.729V252.783C663.128 245.89 668.135 243.112 672.129 243.112C678.535 243.112 681.069 247.755 681.555 252.844C682.893 245.829 687.901 243.112 691.894 243.112C699.213 243.112 701.503 249.154 701.503 254.953V273.93H697.023V255.378C697.023 250.127 694.976 246.559 690.374 246.559C684.515 246.559 681.92 252.175 681.616 256.169V273.93H677.136V255.378C677.136 250.127 675.149 246.559 670.548 246.559C664.385 246.559 661.729 252.844 661.729 256.838V273.93H657.249V243.903Z" fill="white"/>
        <path d="M707.463 257.974H728.607V254.101C728.607 249.397 724.735 246.599 719.667 246.599C714.599 246.599 709.997 249.255 707.038 252.033V247.39C709.876 245.16 713.687 243.153 719.85 243.153C726.621 243.153 733.088 247.208 733.088 254.202V267.503C733.088 269.429 733.635 271.01 735.682 271.01C736.351 271.01 737.081 270.828 737.548 270.645V273.544C736.696 273.97 735.439 274.457 733.919 274.457C729.986 274.457 728.607 271.375 728.607 268.05V264.786C727.33 270.402 723.296 274.7 716.282 274.7C710.241 274.7 706.186 270.706 706.186 264.907C706.186 259.9 707.463 257.953 707.463 257.953V257.974ZM728.607 260.508H711.214C711.214 260.508 710.666 261.765 710.666 264.624C710.666 268.253 712.653 271.274 717.985 271.274C725.425 271.274 728.628 265.232 728.628 260.934V260.508H728.607Z" fill="white"/>
        <path d="M768.686 244.633C765.969 244.633 764.206 245.485 763.192 246.316C765.3 248.181 766.517 250.857 766.517 254.04C766.517 260.63 761.449 264.908 753.765 264.908C751.292 264.908 749.123 264.482 747.299 263.691C745.616 264.36 744.643 265.556 744.643 266.712C744.643 268.395 746.569 269.976 752.083 269.976H768.889C768.889 269.976 769.558 272.206 769.558 276.322C769.558 283.52 763.638 287.98 753.117 287.98C741.643 287.98 738.804 284.29 738.804 280.438C738.804 276.322 742.92 274.457 745.94 273.545C742.068 272.693 740.325 271.01 740.325 268.658C740.325 265.394 743.832 263.955 746.609 263.346C743.041 261.542 740.994 258.278 740.994 254.04C740.994 247.451 746.062 243.173 753.806 243.173C757.252 243.173 760.212 244.025 762.381 245.586C763.658 242.93 765.827 240.578 768.726 240.578V244.633H768.686ZM743.122 278.958C743.122 281.796 745.778 284.939 754.475 284.939C761.976 284.939 765.463 281.553 765.463 277.153C765.463 275.937 765.219 274.193 765.219 274.193H752.65C750.481 274.193 748.596 274.072 747.035 273.828C744.987 274.802 743.102 276.545 743.102 278.958H743.122ZM753.765 261.866C758.834 261.866 762.037 258.785 762.037 254.02C762.037 249.256 758.834 246.296 753.765 246.296C748.697 246.296 745.433 249.377 745.433 254.02C745.433 258.663 748.637 261.866 753.765 261.866Z" fill="white"/>
        <path d="M783.485 243.903V270.422H790.621V273.93H771.889V270.422H779.025V247.35H771.889V243.903H783.485ZM784.154 232.793C784.154 234.415 782.877 235.692 781.255 235.692C779.633 235.692 778.295 234.415 778.295 232.793C778.295 231.171 779.633 229.833 781.255 229.833C782.877 229.833 784.154 231.171 784.154 232.793Z" fill="white"/>
        <path d="M820.117 254.953V273.93H815.637V255.378C815.637 250.127 813.346 246.559 808.034 246.559C801.081 246.559 798.061 252.844 798.061 256.838V273.93H793.58V243.903H798.061V253.027C799.581 245.89 805.318 243.112 808.987 243.112C817.562 243.112 820.097 249.154 820.097 254.953H820.117Z" fill="white"/>
        <path d="M825.955 257.974H847.099V254.101C847.099 249.397 843.227 246.599 838.159 246.599C833.091 246.599 828.489 249.255 825.529 252.033V247.39C828.368 245.16 832.179 243.153 838.342 243.153C845.113 243.153 851.579 247.208 851.579 254.202V267.503C851.579 269.429 852.127 271.01 854.174 271.01C854.843 271.01 855.573 270.828 856.039 270.645V273.544C855.188 273.97 853.931 274.457 852.411 274.457C848.478 274.457 847.099 271.375 847.099 268.05V264.786C845.822 270.402 841.788 274.7 834.774 274.7C828.732 274.7 824.678 270.706 824.678 264.907C824.678 259.9 825.955 257.953 825.955 257.953V257.974ZM847.099 260.508H829.706C829.706 260.508 829.158 261.765 829.158 264.624C829.158 268.253 831.145 271.274 836.476 271.274C843.916 271.274 847.119 265.232 847.119 260.934V260.508H847.099Z" fill="white"/>
        <path d="M870.291 243.903V270.422H877.427V273.93H858.695V270.422H865.831V247.35H858.695V243.903H870.291ZM870.96 232.793C870.96 234.415 869.683 235.692 868.061 235.692C866.439 235.692 865.101 234.415 865.101 232.793C865.101 231.171 866.439 229.833 868.061 229.833C869.683 229.833 870.96 231.171 870.96 232.793Z" fill="white"/>
        <path d="M894.841 247.349H884.867V273.929H880.386V243.903H894.82V247.349H894.841Z" fill="white"/>
        <path d="M895.205 259.008C895.205 249.762 900.882 243.112 910.552 243.112C918.823 243.112 923.789 247.998 924.864 253.574L920.627 254.243C919.654 249.823 916.329 246.559 910.714 246.559C903.335 246.559 899.665 252.114 899.665 259.008C899.665 260.812 899.909 262.515 900.456 264.015C900.456 258.156 905.585 256.047 910.734 256.047C913.876 256.047 916.349 256.777 917.444 257.325V260.832C916.167 260.163 913.086 259.271 909.943 259.271C905.767 259.271 901.49 260.792 901.49 264.461C901.49 269.165 907.288 271.294 911.281 271.294C916.836 271.294 921.438 268.516 924.154 265.8V270.402C921.985 272.45 917.14 274.761 911.099 274.761C900.699 274.761 895.205 268.05 895.205 259.048V259.008Z" fill="white"/>
        <path d="M170.936 43.3267H145.251V0H150.076V39.3935H170.916V43.3267H170.936Z" fill="white"/>
        <path d="M174.301 27.3705H195.445V23.4981C195.445 18.7944 191.573 15.9965 186.505 15.9965C181.437 15.9965 176.835 18.6524 173.876 21.4301V16.7872C176.714 14.557 180.525 12.5498 186.688 12.5498C193.459 12.5498 199.926 16.6047 199.926 23.5994V36.8995C199.926 38.8256 200.473 40.407 202.521 40.407C203.19 40.407 203.919 40.2246 204.386 40.0421V42.9414C203.534 43.3671 202.277 43.8537 200.757 43.8537C196.824 43.8537 195.445 40.772 195.445 37.447V34.1828C194.168 39.7988 190.134 44.097 183.12 44.097C177.079 44.097 173.024 40.1029 173.024 34.3044C173.024 29.2966 174.301 27.3502 174.301 27.3502V27.3705ZM195.445 29.9048H178.052C178.052 29.9048 177.504 31.1618 177.504 34.0206C177.504 37.6497 179.491 40.6706 184.823 40.6706C192.263 40.6706 195.466 34.6288 195.466 30.3306V29.9048H195.445Z" fill="white"/>
    </g>
    <defs>
        <clipPath id="clip0_248_2239">
            <rect width="935" height="288" fill="white"/>
        </clipPath>
    </defs>
</svg>
